<svg xmlns="http://www.w3.org/2000/svg" viewBox="11 510 1478 478"><path class="cls-2" fill="#161616" stroke="#161616" stroke-linejoin="round" stroke-width="8.54px" d="M1417.4,808.68c-2.9-40.86-36.37-73.73-77.27-75.93-26.79-1.45-51.83,12.93-63.84,26.64-6.17,7-11.1,14.88-15.2,21-31.89,47.73-74.93,92.77-111.92,92.77-12.23,0-21.71-11.59-21.81-21.62V807.08c0-40.69-31.87-72.54-72.54-72.54a72.39,72.39,0,0,0-51.57,21.05,11.79,11.79,0,0,1-16.63-.06A71.81,71.81,0,0,0,963.18,740a73.15,73.15,0,0,0-27.79-5.42h-.06a63.37,63.37,0,0,0-32.08,8.18A10.21,10.21,0,0,1,888,733.86H862.39v50.78c-31.57,46.24-73.26,88.82-109.23,88.82-8,0-21.75-11.94-21.75-30.2V732H705.8v92.73c0,14.71-11.81,46.94-46.92,46.94-35.46,0-46.94-31.61-46.94-46V732H583.46c-14,69.57-72.32,141-108.88,141.16-27.73.13-56.42-21.11-56.42-56.41V600.3H392.54V702.44a153.84,153.84,0,0,1-25.44,84.74c-26.68,40.43-65.62,86.35-100.73,86.35-57.65,0-99.42-62.77-116.31-83.31a3.07,3.07,0,0,1,.64-4.47c28.59-19.76,77.12-52.25,77.12-52.25l-14.11-21.39-74,48.82.6-160.7H114.68v297H140.3V816.15c31.21,33.89,65.66,83,126.07,83,33.19,0,68.84-25.19,105.92-74.84,2.84-3.82,5.59-7.62,8.21-11.38,3.72-5.29,10.68-7.81,12,3.83,3,25.5,10.44,46.19,25.9,60.28a84.3,84.3,0,0,0,56.14,21.75c33.19,0,58.36-22.48,95.43-72.13.84-1.13,1.67-2.26,2.5-3.42,5.53-7.81,11.33-8,13.81,1.33v.17c0,30.12,22.52,72.55,72.56,72.55,17.61,0,31.89-5.48,43-13.89a12.61,12.61,0,0,1,1.16-.8c5.48-3.41,12.61-2.06,17.2,2.48a47.3,47.3,0,0,0,33,14c31.57,0,61.88-20.9,87.2-46.58,5.38-5.44,13.9-14.88,22-24.78v67.49H888v-86.9a41.88,41.88,0,0,1,10.55-27.77c5.51-6.15,10.37-11.25,16-14.81s12.12-5.57,20.77-5.57h0a46.51,46.51,0,0,1,46.88,46.92v88h25.61V808c0-25.76,20.39-47.45,46.15-47.85a46.4,46.4,0,0,1,47.71,46.92v44.44c.11,25.19,22.22,47.24,47.43,47.24,31.57,0,61.88-20.9,87.2-46.58a17.82,17.82,0,0,1,28.18,3.44,82,82,0,0,0,152.85-46.94Zm-81.81,62.37a56.39,56.39,0,0,1-52-78.28.07.07,0,0,1,0,0,56.37,56.37,0,0,1,10-15.75.07.07,0,0,1,0,0,56.39,56.39,0,1,1,41.91,94.11Z" /></svg>